<svg id="flat" height="512" viewBox="0 0 512 512" width="512" xmlns="http://www.w3.org/2000/svg"><path d="m144 248v248h-80v-184a63.99511 63.99511 0 0 1 64-64z" fill="#ffceb6"/><path d="m368 248v248h80v-184a63.99511 63.99511 0 0 0 -64-64z" fill="#ffceb6"/><path d="m448 400h-48.14c.09 1.47.14 2.93994.14 4.40991a71.22122 71.22122 0 0 1 -28.47 56.94009l-3.53 2.65.06 32h-224.12l.06-32-3.53-2.65a71.22122 71.22122 0 0 1 -28.47-56.94009c0-1.47.05-2.93994.14-4.40991h-48.14v-88a63.99511 63.99511 0 0 1 64-64h256a63.99511 63.99511 0 0 1 64 64z" fill="#548aff"/><path d="m152 496h-16v-28l-.33008-.24707a79.17491 79.17491 0 0 1 -19.63476-105.30322l24.94051-39.90558a8.00024 8.00024 0 0 1 11.02443-2.54407 8.00023 8.00023 0 0 1 2.544 11.02427l-24.9411 39.90536a63.17466 63.17466 0 0 0 15.667 84.02295l3.52936 2.64665a8.00049 8.00049 0 0 1 3.20064 6.40071z" fill="#4f7ff7"/><path d="m376 496h-16v-32a8.00046 8.00046 0 0 1 3.20048-6.4006l3.53-2.64725a63.17488 63.17488 0 0 0 15.667-84.022l-24.94151-39.90583a8.00024 8.00024 0 0 1 2.544-11.02429 8.00025 8.00025 0 0 1 11.02442 2.54405l24.941 39.9061a79.17513 79.17513 0 0 1 -19.63476 105.30224l-.33063.24758z" fill="#4f7ff7"/><path d="m312 224v40.00006a55.99994 55.99994 0 0 1 -55.99994 55.99994h-.00012a55.99994 55.99994 0 0 1 -55.99994-55.99994v-40.00006z" fill="#ffbfa1"/><path d="m136 248v-104.00012a119.99988 119.99988 0 0 1 119.99988-119.99988h.00024a119.99988 119.99988 0 0 1 119.99988 119.99988v184.00017a48 48 0 0 1 -48 48v-128.00005z" fill="#b1712c"/><path d="m328 120v88a72 72 0 1 1 -144 0v-88a28.337 28.337 0 0 0 27.95-23.67l4.05-24.33a70.19559 70.19559 0 0 0 66.6 48z" fill="#ffceb6"/><path d="m236.41 212.7-12.5 10-39.91-49.89v-25.61z" fill="#d1e4ff"/><path d="m328 147.19v25.62l-39.91 49.89-12.5-10z" fill="#d1e4ff"/><circle cx="224" cy="160" fill="#91591c" r="8"/><circle cx="288" cy="160" fill="#91591c" r="8"/><path d="m248 168h16v32h-16z" fill="#ffb089"/><path d="m296 200v67.87a72.01718 72.01718 0 0 1 -80 0v-67.87z" fill="#08d175"/><path d="m248 224h48v16h-48z" fill="#02c26a"/></svg>