<svg id="flat" height="512" viewBox="0 0 512 512" width="512" xmlns="http://www.w3.org/2000/svg"><path d="m496 24h-208a48 48 0 0 0 -48 48v96h256z" fill="#ffceb6"/><path d="m296 224h-80l-16-152h112z" fill="#3cde8d"/><path d="m216 224h80v40h-80z" fill="#02c26a"/><path d="m232 264 8 24h32l8-24z" fill="#00b55b"/><path d="m216 264-48 40-16-24 48-40h16z" fill="#00b55b"/><path d="m16 488h288a16 16 0 0 0 16-16 16 16 0 0 0 -16-16h16a16 16 0 0 0 16-16 16 16 0 0 0 -16-16h16a16 16 0 0 0 16-16 16 16 0 0 0 -16-16h-16a16 16 0 0 0 16-16 16 16 0 0 0 -16-16h-104l-32-16h-168z" fill="#ffceb6"/><path d="m16 344h104v144h-104z" fill="#ffb401"/><g fill="#ffbfa1"><rect height="16" rx="8" width="48" x="280" y="384"/><rect height="16" rx="8" width="48" x="280" y="416"/><rect height="16" rx="8" width="40" x="272" y="448"/></g><path d="m136 408h24a71.25892 71.25892 0 0 0 53.25959-23.91707l38.34814-43.14166a17.38877 17.38877 0 0 0 4.39227-11.55247 17.38878 17.38878 0 0 0 -17.38878-17.3888 21.8353 21.8353 0 0 0 -12.11205 3.66723l-42.49917 28.33277h-48z" fill="#ffceb6"/><path d="m280 336c0-13.25483-24-48-24-48s-24 34.74517-24 48a24 24 0 0 0 48 0z" fill="#8be0e8"/><path d="m160 407.54191a8.017 8.017 0 0 1 7.1485-7.9478 63.32219 63.32219 0 0 0 40.13226-20.826l16.09135-18.1035a8.00012 8.00012 0 0 1 11.29438-.66461 8.00014 8.00014 0 0 1 .66451 11.2944l-16.09174 18.1036a79.33907 79.33907 0 0 1 -50.38727 26.1053 7.993 7.993 0 0 1 -8.85199-7.96139z" fill="#ffbfa1"/><path d="m344 104a89.069 89.069 0 0 0 -66.57132 29.89512l-33.034 37.16361a17.38879 17.38879 0 0 0 -4.3922 11.55244v.00025a17.38859 17.38859 0 0 0 17.38852 17.38858 21.835 21.835 0 0 0 12.11195-3.66723l42.49878-28.33277h31.99827z" fill="#ffceb6"/><path d="m384 24h112v144h-112z" fill="#ffb401"/><path d="m257.39111 208a25.416 25.416 0 0 1 -25.32027-27.27178 26.06263 26.06263 0 0 1 6.65925-15.33852l32.71913-36.80962a97.16218 97.16218 0 0 1 63.80741-32.18482 8.01107 8.01107 0 0 1 8.74337 7.96954 8.04493 8.04493 0 0 1 -7.387 7.973 81.14363 81.14363 0 0 0 -53.2048 26.8722l-32.87283 36.982a9.73941 9.73941 0 0 0 -2.43414 5.04141 9.40085 9.40085 0 0 0 9.28988 10.76659 13.78909 13.78909 0 0 0 7.67432-2.32373l35.84565-23.897a7.99638 7.99638 0 0 1 11.08892 2.21784l.00386.0058a7.99636 7.99636 0 0 1 -2.21775 11.08894l-35.84571 23.89741a29.73928 29.73928 0 0 1 -16.54929 5.01074z" fill="#ffbfa1"/></svg>