<svg id="flat" enable-background="new 0 0 512 512" height="512" viewBox="0 0 512 512" width="512" xmlns="http://www.w3.org/2000/svg"><g><path d="m208 240h96v168h-96z" fill="#718799"/><path d="m208 224v40h-8c-13.253-.003-23.997-10.747-24-24v-16z" fill="#ffceb6"/><path d="m336 224v16c-.003 13.253-10.747 23.997-24 24h-8v-40z" fill="#ffceb6"/><path d="m336 224h-32v16h-96v-16h-32v-72c0-17.673 14.327-32 32-32h96c17.673 0 32 14.327 32 32z" fill="#548aff"/><path d="m67.999 25.089h16v101.822h-16z" fill="#d1e4ff" transform="matrix(.707 -.707 .707 .707 -31.48 75.999)"/><path d="m127.998 124.686h16v22.627h-16z" fill="#d1e4ff" transform="matrix(.707 -.707 .707 .707 -56.333 135.998)"/><path d="m164.688 327.984h22.627v16h-22.627z" fill="#d1e4ff" transform="matrix(.707 -.707 .707 .707 -186.027 222.859)"/><path d="m16.811 407.982h158.39v16h-158.39z" fill="#d1e4ff" transform="matrix(.707 -.707 .707 .707 -266.024 189.725)"/><path d="m164.688 327.984h22.627v16h-22.627z" fill="#d1e4ff" transform="matrix(.707 -.707 .707 .707 -186.027 222.859)"/><path d="m16.811 407.982h158.39v16h-158.39z" fill="#d1e4ff" transform="matrix(.707 -.707 .707 .707 -266.024 189.725)"/><path d="m224 240h-16v-72c0-4.418 3.582-8 8-8 4.418 0 8 3.582 8 8z" fill="#4f7ff7"/><path d="m304 240h-16v-72c0-4.418 3.582-8 8-8 4.418 0 8 3.582 8 8z" fill="#4f7ff7"/><path d="m256 448h72v-16l-24-24h-48z" fill="#d1e4ff"/><path d="m256 448h-72v-16l24-24h48z" fill="#d1e4ff"/><path d="m248 280h16v128h-16z" fill="#62798c"/><path d="m264 168 8 32-16 16-16-16 8-32-8-16 12-24h8l12 24z" fill="#91c0ff"/><path d="m264 176h-16c-4.418 0-8-3.582-8-8s3.582-8 8-8h16c4.418 0 8 3.582 8 8s-3.582 8-8 8z" fill="#7dafff"/><path d="m280 88v-13.578c0-10.174-8.248-18.422-18.422-18.422-3.637 0-7.193 1.077-10.219 3.094l-19.359 12.906v16z" fill="#b1712c"/><path d="m232 88v24c0 13.255 10.745 24 24 24 13.255 0 24-10.745 24-24v-24z" fill="#ffceb6"/><path d="m248 408h16v40h-16z" fill="#bed3f7"/><g fill="#d1e4ff"><path d="m152 32h16v16h-16z"/><path d="m32 144h16v-96h88v-16h-88v-16h-16v16h-16v16h16z"/><path d="m32 160h16v16h-16z"/><path d="m128 464h16v16h-16z"/><path d="m48 368h-16v96h-16v16h16v16h16v-16h64v-16h-64z"/><path d="m32 336h16v16h-16z"/><path d="m48 264h40v-16h-40v-48h-16v112h16z"/><path d="m104 248h16v16h-16z"/><path d="m136 248h16v16h-16z"/><path d="m385.085 68.003h101.822v16h-101.822z" transform="matrix(.707 -.707 .707 .707 73.958 330.557)"/><path d="m364.683 128.002h22.627v16h-22.627z" transform="matrix(.707 -.707 .707 .707 13.959 305.704)"/><path d="m327.995 324.707h16v22.627h-16z" transform="matrix(.707 -.707 .707 .707 -139.191 336.002)"/><path d="m407.994 336.83h16v158.39h-16z" transform="matrix(.707 -.707 .707 .707 -172.333 416.003)"/><path d="m385.085 68.003h101.822v16h-101.822z" transform="matrix(.707 -.707 .707 .707 73.958 330.557)"/><path d="m364.683 128.002h22.627v16h-22.627z" transform="matrix(.707 -.707 .707 .707 13.959 305.704)"/><path d="m327.995 324.707h16v22.627h-16z" transform="matrix(.707 -.707 .707 .707 -139.191 336.002)"/><path d="m407.994 336.83h16v158.39h-16z" transform="matrix(.707 -.707 .707 .707 -172.333 416.003)"/><path d="m344 32h16v16h-16z"/><path d="m480 144h-16v-96h-88v-16h88v-16h16v16h16v16h-16z"/><path d="m464 160h16v16h-16z"/><path d="m368 464h16v16h-16z"/><path d="m464 368h16v96h16v16h-16v16h-16v-16h-64v-16h64z"/><path d="m464 336h16v16h-16z"/><path d="m464 264h-40v-16h40v-48h16v112h-16z"/><path d="m392 248h16v16h-16z"/><path d="m360 248h16v16h-16z"/></g><path d="m40 40h32v32h-32z" fill="#ffc431"/><path d="m40 440h32v32h-32z" fill="#ffc431"/><path d="m440 40h32v32h-32z" fill="#ffc431"/><path d="m440 440h32v32h-32z" fill="#ffc431"/></g></svg>