<?xml version="1.0" encoding="iso-8859-1"?>
<!-- Generator: Adobe Illustrator 19.0.0, SVG Export Plug-In . SVG Version: 6.00 Build 0)  -->
<svg version="1.1" id="Capa_1" xmlns="http://www.w3.org/2000/svg" xmlns:xlink="http://www.w3.org/1999/xlink" x="0px" y="0px"
	 viewBox="0 0 512 512" style="enable-background:new 0 0 512 512;" xml:space="preserve">
<path style="fill:#F3F3F3;" d="M256,460.8c-103.68,0-187.733-84.053-187.733-187.733S152.32,85.333,256,85.333
	s187.733,84.053,187.733,187.733S359.68,460.8,256,460.8z"/>
<path style="fill:#5B5B5B;" d="M256,460.8c-103.68,0-187.733-84.053-187.733-187.733S152.32,85.333,256,85.333
	s187.733,84.053,187.733,187.733S359.68,460.8,256,460.8z M256,102.4c-94.259,0-170.667,76.407-170.667,170.667
	S161.741,443.733,256,443.733s170.667-76.408,170.667-170.667S350.259,102.4,256,102.4z"/>
<path style="fill:#EC9821;" d="M256.222,418.133h-0.154c-4.036-0.077-7.458-2.961-9.088-11.401l-34.859-181.282
	c-1.007-11.153,2.551-22.238,9.865-30.72c8.09-9.839,20.156-15.539,32.896-15.531h9.651c23.561,0,42.667,19.098,42.667,42.667
	c0,3.234-0.367,6.451-1.092,9.6L264.533,411.52C263.637,415.394,260.19,418.133,256.222,418.133z"/>
<path style="fill:#03AA6F;" d="M264.533,187.733h-17.067V179.2c0.026-23.552,19.115-42.641,42.667-42.667V153.6
	c-14.14,0-25.6,11.46-25.6,25.6l0,0V187.733z"/>
<g>
	<rect x="247.723" y="221.867" style="fill:#FFDB6F;" width="17.067" height="17.067"/>
	<rect x="264.789" y="290.133" style="fill:#FFDB6F;" width="17.067" height="17.067"/>
	<rect x="230.656" y="264.533" style="fill:#FFDB6F;" width="17.067" height="17.067"/>
</g>
<path style="fill:#DD2E2B;" d="M341.333,375.586c-17.468-0.017-34.398-5.999-48-16.956c-3.379-2.705-4.198-7.518-1.903-11.187
	l42.667-68.267c2.816-4.002,8.346-4.966,12.356-2.15c0.836,0.589,1.562,1.314,2.15,2.15l42.667,68.267
	c2.296,3.669,1.476,8.482-1.903,11.187C375.757,369.596,358.81,375.578,341.333,375.586z"/>
<rect x="332.8" y="326.4" style="fill:#5B5B5B;" width="17.067" height="17.067"/>
<path style="fill:#FFE38F;" d="M170.667,384c-28.262-0.026-51.174-22.938-51.2-51.2v-34.133
	c0.043-37.683,30.583-68.224,68.267-68.267c4.71,0,8.533,3.823,8.533,8.533V358.4C196.267,372.54,184.806,384,170.667,384z"/>
<rect x="162.133" y="298.667" style="fill:#EC9821;" width="17.067" height="34.133"/>
<g>
	<path style="fill:#03AA6F;" d="M324.267,264.533c-4.71,0-8.533-3.823-8.533-8.533v-42.667c0.026-28.262,22.938-51.174,51.2-51.2
		c4.71,0,8.533,3.823,8.533,8.533v42.667C375.441,241.596,352.529,264.508,324.267,264.533z"/>
	<path style="fill:#03AA6F;" d="M187.733,204.8c-18.85,0-34.133-15.283-34.133-34.133s15.283-34.133,34.133-34.133
		s34.133,15.283,34.133,34.133S206.583,204.8,187.733,204.8z"/>
</g>
<path style="fill:#EC9821;" d="M162.133,230.4v-17.067c9.429,0,17.067-7.637,17.067-17.067h17.067
	C196.267,215.117,180.983,230.4,162.133,230.4z"/>
<rect x="460.8" y="153.6" style="fill:#5B5B5B;" width="17.067" height="307.2"/>
<path style="fill:#F3F3F3;" d="M494.933,93.867V128c-0.026,9.412-7.654,17.041-17.067,17.067H460.8
	c-9.412-0.026-17.041-7.654-17.067-17.067V93.867c0-14.14,11.46-25.6,25.6-25.6C483.473,68.267,494.933,79.727,494.933,93.867z"/>
<g>
	<path style="fill:#5B5B5B;" d="M494.933,128V93.867c0-14.14-11.46-25.6-25.6-25.6c-14.14,0-25.6,11.46-25.6,25.6V128
		c0.026,9.412,7.654,17.041,17.067,17.067h17.067C487.279,145.041,494.908,137.412,494.933,128z M512,128
		c0,18.85-15.283,34.133-34.133,34.133H460.8c-18.85,0-34.133-15.283-34.133-34.133V93.867c0-23.561,19.106-42.667,42.667-42.667
		C492.894,51.2,512,70.306,512,93.867V128z"/>
	<rect x="34.133" y="136.533" style="fill:#5B5B5B;" width="17.067" height="324.267"/>
	<path style="fill:#5B5B5B;" d="M42.667,145.067C19.115,145.041,0.026,125.952,0,102.4V59.733h17.067V102.4
		c0,14.14,11.46,25.6,25.6,25.6s25.6-11.46,25.6-25.6V59.733h17.067V102.4C85.308,125.952,66.219,145.041,42.667,145.067z"/>
	<rect x="34.133" y="59.733" style="fill:#5B5B5B;" width="17.067" height="76.8"/>
</g>
<g>
</g>
<g>
</g>
<g>
</g>
<g>
</g>
<g>
</g>
<g>
</g>
<g>
</g>
<g>
</g>
<g>
</g>
<g>
</g>
<g>
</g>
<g>
</g>
<g>
</g>
<g>
</g>
<g>
</g>
</svg>
