<svg id="flat" height="512" viewBox="0 0 512 512" width="512" xmlns="http://www.w3.org/2000/svg"><path d="m400 440h-352a24 24 0 0 0 -24 24 24 24 0 0 0 24 24h352z" fill="#718799"/><path d="m216 208v64l-14.05 25.30005-15.15991 27.28a37.75827 37.75827 0 0 1 -51.34009 14.66995l-63.45-35.25-24 48h-24v-88h32l96 24v-92.55z" fill="#ffceb6"/><path d="m472 88v32l-57.85986 57.85986a48.28427 48.28427 0 0 1 -68.28028 0l-33.85986-33.85986-72 72 53.25 53.25a64.00452 64.00452 0 0 1 18.75 45.26v77.49l48 32v16h-88v-32l-16-96-16.64014-15.35986-72.25976-66.7002a46.94752 46.94752 0 0 1 -1.3501-67.68994l42.25-42.25h-48l-40 40v24h-16l-8-16-16 16-16-16v-16l63.6001-63.6001a55.99385 55.99385 0 0 1 39.5999-16.3999h144.8l72 72 32-32v-24h16l8 16 16-16z" fill="#ffceb6"/><path d="m368 128-32 40-24-24-72 72-64-64 32-32h-32v-48h136z" fill="#548aff"/><path d="m280 56h48a0 0 0 0 1 0 0v24a24 24 0 0 1 -24 24 24 24 0 0 1 -24-24v-24a0 0 0 0 1 0 0z" fill="#ffceb6"/><path d="m280 56v-16l19.359-12.906a18.42223 18.42223 0 0 1 10.21879-3.094 18.42218 18.42218 0 0 1 18.42221 18.42219v13.57781z" fill="#b1712c"/><path d="m312 392-40 16v32h88v-16z" fill="#d1e4ff"/><path d="m72 304-16-40h-32v88h24z" fill="#d1e4ff"/><path d="m352 488h96l36.61453-51.26034a18.17543 18.17543 0 0 0 3.38547-10.56424 18.1754 18.1754 0 0 0 -18.1754-18.17542h-61.8246z" fill="#8098ab"/><circle cx="448" cy="432" fill="#08d175" r="8"/><path d="m216 208v64l-14.05 25.3-49.95-33.3v-68.55z" fill="#ffb401"/><path d="m280 256-40.64014 40.64014-72.25976-66.7002a46.94752 46.94752 0 0 1 -1.3501-67.68994l10.25-10.25z" fill="#ffc431"/></svg>